<svg width="100" height="100" viewBox="0 0 100 100" fill="none" xmlns="http://www.w3.org/2000/svg">
    <path
        d="M54.8838 69.7685H46.1396C39.9536 69.7685 34.8838 64.5592 34.8838 58.1406C34.8838 56.2336 36.4652 54.6522 38.3722 54.6522C40.2791 54.6522 41.8605 56.2336 41.8605 58.1406C41.8605 60.6987 43.7675 62.7918 46.1396 62.7918H54.8838C56.6977 62.7918 58.1396 61.1639 58.1396 59.1639C58.1396 56.6522 57.4419 56.2801 55.8605 55.722L41.8605 50.8383C38.8838 49.815 34.8838 47.629 34.8838 40.7918C34.8838 34.978 39.4885 30.1873 45.1163 30.1873H53.8605C60.0466 30.1873 65.1163 35.3966 65.1163 41.815C65.1163 43.722 63.5349 45.3034 61.628 45.3034C59.721 45.3034 58.1396 43.722 58.1396 41.815C58.1396 39.257 56.2326 37.164 53.8605 37.164H45.1163C43.3024 37.164 41.8605 38.7919 41.8605 40.7918C41.8605 43.3034 42.5582 43.6755 44.1396 44.2336L58.1396 49.1173C61.1163 50.1406 65.1163 52.3266 65.1163 59.1639C65.1163 65.0243 60.5117 69.7685 54.8838 69.7685Z"
        fill="black" />
    <path
        d="M50.0001 74.4185C48.0931 74.4185 46.5117 72.8371 46.5117 70.9301V29.0697C46.5117 27.1627 48.0931 25.5813 50.0001 25.5813C51.9071 25.5813 53.4885 27.1627 53.4885 29.0697V70.9301C53.4885 72.8371 51.9071 74.4185 50.0001 74.4185Z"
        fill="black" />
    <path
        d="M50 100C22.4186 100 0 77.5814 0 50C0 22.4186 22.4186 0 50 0C51.907 0 53.4884 1.5814 53.4884 3.48837C53.4884 5.39535 51.907 6.97674 50 6.97674C26.2791 6.97674 6.97674 26.2791 6.97674 50C6.97674 73.7209 26.2791 93.0233 50 93.0233C73.7209 93.0233 93.0233 73.7209 93.0233 50C93.0233 48.093 94.6046 46.5116 96.5116 46.5116C98.4186 46.5116 100 48.093 100 50C100 77.5814 77.5814 100 50 100Z"
        fill="black" />
    <path
        d="M91.8604 30.2325H73.2557C71.3487 30.2325 69.7673 28.6511 69.7673 26.7441V8.13949C69.7673 6.23252 71.3487 4.65112 73.2557 4.65112C75.1627 4.65112 76.7441 6.23252 76.7441 8.13949V23.2558H91.8604C93.7673 23.2558 95.3487 24.8372 95.3487 26.7441C95.3487 28.6511 93.7673 30.2325 91.8604 30.2325Z"
        fill="black" />
    <path
        d="M73.2534 30.2322C72.3696 30.2322 71.4859 29.9066 70.7882 29.2089C69.4394 27.8601 69.4394 25.6275 70.7882 24.2787L94.0441 1.02286C95.3929 -0.325979 97.6254 -0.325979 98.9743 1.02286C100.323 2.3717 100.323 4.60425 98.9743 5.95309L75.7185 29.2089C75.0208 29.9066 74.1371 30.2322 73.2534 30.2322Z"
        fill="black" />
</svg>
    