<svg width="108" height="100" viewBox="0 0 108 100" fill="none" xmlns="http://www.w3.org/2000/svg">
    <path
        d="M53.8462 0C32.6385 0 15.3846 17.2538 15.3846 38.4615C15.3846 59.6692 32.6385 76.9231 53.8462 76.9231C75.0538 76.9231 92.3077 59.6692 92.3077 38.4615C92.3077 17.2538 75.0538 0 53.8462 0ZM53.8462 7.69231C70.8115 7.69231 84.6154 21.4962 84.6154 38.4615C84.6154 55.4269 70.8115 69.2308 53.8462 69.2308C36.8808 69.2308 23.0769 55.4269 23.0769 38.4615C23.0769 21.4962 36.8808 7.69231 53.8462 7.69231ZM50 15.3846V19.9594C49.4423 20.1614 48.9002 20.4081 48.3849 20.6881C47.8696 20.9681 47.3777 21.284 46.9126 21.6346C46.4474 21.9853 46.0126 22.37 45.6055 22.784C44.7912 23.6119 44.0977 24.5563 43.5622 25.5934C43.2945 26.112 43.0649 26.6562 42.8786 27.216C42.506 28.3356 42.3077 29.5288 42.3077 30.7692C42.3077 31.5577 42.3927 32.3287 42.5481 33.0754C42.8588 34.5688 43.4636 35.963 44.2984 37.192C44.7157 37.8065 45.1866 38.3807 45.7106 38.9047C46.7587 39.9528 48.0066 40.8023 49.384 41.3912C50.7614 41.9802 52.2692 42.3077 53.8462 42.3077C54.3942 42.3077 54.9078 42.4114 55.3711 42.6007C55.8344 42.79 56.2443 43.0682 56.588 43.412C56.9318 43.7557 57.21 44.1656 57.3993 44.6289C57.5886 45.0922 57.6923 45.6058 57.6923 46.1538C57.6923 47.7981 56.7611 49.1391 55.3711 49.707C54.9078 49.8963 54.3942 50 53.8462 50C53.2981 50 52.7846 49.8963 52.3212 49.707C51.8579 49.5177 51.448 49.2395 51.1043 48.8957C50.4168 48.2082 50 47.25 50 46.1538H42.3077C42.3077 46.774 42.3609 47.3856 42.4579 47.9793C42.555 48.5729 42.6923 49.1472 42.8786 49.707C43.0649 50.2668 43.2945 50.8111 43.5622 51.3296C43.8299 51.8482 44.1373 52.3395 44.4787 52.8095C44.82 53.2794 45.1983 53.7251 45.6055 54.1391C46.0126 54.5531 46.4474 54.9378 46.9126 55.2885C47.3777 55.6391 47.8696 55.955 48.3849 56.235C48.9002 56.5149 49.4423 56.7617 50 56.9636V61.5385H57.6923V56.9636C61.5962 55.5502 64.555 52.135 65.2344 47.9793C65.3314 47.3856 65.3846 46.774 65.3846 46.1538C65.3846 45.3654 65.2996 44.5943 65.1442 43.8477C64.9889 43.101 64.7626 42.3804 64.4682 41.6917C64.1737 41.003 63.8113 40.3456 63.3939 39.7311C62.9766 39.1166 62.5057 38.5424 61.9817 38.0183C61.4576 37.4943 60.8834 37.0234 60.2689 36.6061C59.6544 36.1887 58.997 35.8263 58.3083 35.5318C57.6196 35.2374 56.899 35.0111 56.1523 34.8558C55.4057 34.7004 54.6346 34.6154 53.8462 34.6154C53.2981 34.6154 52.7846 34.5117 52.3212 34.3224C51.8579 34.1331 51.448 33.8549 51.1043 33.5111C50.7605 33.1674 50.4823 32.7575 50.293 32.2942C50.1037 31.8308 50 31.3173 50 30.7692C50 30.2212 50.1037 29.7076 50.293 29.2443C50.4823 28.7809 50.7605 28.3711 51.1043 28.0273C51.448 27.6836 51.8579 27.4053 52.3212 27.216C52.7846 27.0267 53.2981 26.9231 53.8462 26.9231C56.0385 26.9231 57.6923 28.5769 57.6923 30.7692H65.3846C65.3846 30.149 65.3314 29.5375 65.2344 28.9438C65.1373 28.3501 65 27.7758 64.8137 27.216C63.6959 23.8573 61.0385 21.171 57.6923 19.9594V15.3846H50ZM0 69.2308V100H7.69231V76.9231H28.3879C25.1148 74.75 22.158 72.1461 19.5388 69.2308H0ZM88.1535 69.2308C85.5343 72.1461 82.5775 74.75 79.3044 76.9231H100V100H107.692V69.2308H88.1535ZM15.3846 84.6154V92.3077H92.3077V84.6154H15.3846Z"
        fill="black" />
</svg>
    