<svg width="100" height="100" viewBox="0 0 100 100" fill="none" xmlns="http://www.w3.org/2000/svg">
    <path
        d="M77.7745 73.8462L99.1864 95.258C100.271 96.3428 100.271 98.1016 99.1864 99.1864C98.1016 100.271 96.3428 100.271 95.258 99.1864L73.8462 77.7745C66.0109 84.6916 55.7178 88.8889 44.4444 88.8889C19.8985 88.8889 0 68.9904 0 44.4444C0 19.8985 19.8985 0 44.4444 0C68.9904 0 88.8889 19.8985 88.8889 44.4444C88.8889 55.7178 84.6916 66.0109 77.7745 73.8462ZM44.4444 83.3333C65.9222 83.3333 83.3333 65.9222 83.3333 44.4444C83.3333 22.9667 65.9222 5.55556 44.4444 5.55556C22.9667 5.55556 5.55556 22.9667 5.55556 44.4444C5.55556 65.9222 22.9667 83.3333 44.4444 83.3333Z"
        fill="#151515" />
</svg>
    