<svg width="88" height="100" viewBox="0 0 88 100" fill="none" xmlns="http://www.w3.org/2000/svg">
    <path
        d="M61.75 59.375C56.1445 59.375 53.4492 62.5 44.25 62.5C35.0508 62.5 32.375 59.375 26.75 59.375C12.2578 59.375 0.5 71.1328 0.5 85.625V90.625C0.5 95.8008 4.69922 100 9.875 100H78.625C83.8008 100 88 95.8008 88 90.625V85.625C88 71.1328 76.2422 59.375 61.75 59.375ZM78.625 90.625H9.875V85.625C9.875 76.3281 17.4531 68.75 26.75 68.75C29.6016 68.75 34.2305 71.875 44.25 71.875C54.3477 71.875 58.8789 68.75 61.75 68.75C71.0469 68.75 78.625 76.3281 78.625 85.625V90.625ZM44.25 56.25C59.7773 56.25 72.375 43.6523 72.375 28.125C72.375 12.5977 59.7773 0 44.25 0C28.7227 0 16.125 12.5977 16.125 28.125C16.125 43.6523 28.7227 56.25 44.25 56.25ZM44.25 9.375C54.582 9.375 63 17.793 63 28.125C63 38.457 54.582 46.875 44.25 46.875C33.918 46.875 25.5 38.457 25.5 28.125C25.5 17.793 33.918 9.375 44.25 9.375Z"
        fill="black" />
</svg>
    